<?xml version="1.0" encoding="utf-8"?>
<!-- Generator: Adobe Illustrator 23.0.2, SVG Export Plug-In . SVG Version: 6.00 Build 0)  -->
<svg version="1.1"
	 id="svg2" xmlns:cc="http://creativecommons.org/ns#" xmlns:dc="http://purl.org/dc/elements/1.1/" xmlns:rdf="http://www.w3.org/1999/02/22-rdf-syntax-ns#" xmlns:svg="http://www.w3.org/2000/svg"
	 xmlns="http://www.w3.org/2000/svg" xmlns:xlink="http://www.w3.org/1999/xlink" x="0px" y="0px" viewBox="0 0 666.7 666.7"
	 style="enable-background:new 0 0 666.7 666.7;" xml:space="preserve">
<g id="g10" transform="matrix(1.3333333,0,0,1.3333333,0,2e-5)">
	<path id="path12" d="M387.6,175.1l-137,137c-0.9,0.9-2.3,0.3-2.3-1V6.9c0-1.3,1.6-1.9,2.4-0.9l137,167.2
		C388.2,173.8,388.1,174.6,387.6,175.1L387.6,175.1z"/>
	<path id="path14" d="M223.3,35.3l-80.1,255.3c-0.3,0.7-0.1,1.6,0.5,2.1l101.9,101.9c1.4,1.4,3.7,1.4,5.1,0l97.8-97.9
		c1.8-1.8,4.2-2.8,6.8-2.8h91.7c1.1,0,1.6,1.3,0.9,2.1L250.5,493.6c-1.3,1.3-3.3,1.3-4.5,0L57.6,305.2c-1.4-1.4-1.6-3.5-0.6-5.2
		C138.6,167.9,193.2,79.4,220.6,34.8c0.3-0.5,0.6-0.7,0.9-0.8c0.4-0.1,0.8,0,1.1,0.1C223.1,34.3,223.4,34.8,223.3,35.3L223.3,35.3z"
		/>
</g>
</svg>
